<mxfile host="app.diagrams.net" agent="Mozilla/5.0 (Macintosh; Intel Mac OS X 10_15_7) AppleWebKit/537.36 (KHTML, like Gecko) Chrome/130.0.0.0 Safari/537.36" version="24.8.6">
  <diagram name="第 1 页" id="XtMWljfxsm4l7w6YXOUE">
    <mxGraphModel dx="1244" dy="720" grid="1" gridSize="10" guides="1" tooltips="1" connect="1" arrows="1" fold="1" page="1" pageScale="1" pageWidth="827" pageHeight="1169" math="0" shadow="0">
      <root>
        <mxCell id="0" />
        <mxCell id="1" parent="0" />
        <mxCell id="b58emFoe7f32XrIK5xdj-1" value="客服学员" style="shape=umlActor;verticalLabelPosition=bottom;verticalAlign=top;html=1;outlineConnect=0;" parent="1" vertex="1">
          <mxGeometry x="210" y="310" width="30" height="60" as="geometry" />
        </mxCell>
        <mxCell id="b58emFoe7f32XrIK5xdj-16" value="学员端_训练系统" style="shape=umlFrame;whiteSpace=wrap;html=1;pointerEvents=0;width=132;height=30;" parent="1" vertex="1">
          <mxGeometry x="298.15" y="70" width="531.85" height="590" as="geometry" />
        </mxCell>
        <mxCell id="b58emFoe7f32XrIK5xdj-17" value="热线训练" style="ellipse;whiteSpace=wrap;html=1;" parent="1" vertex="1">
          <mxGeometry x="380" y="200" width="140" height="40" as="geometry" />
        </mxCell>
        <mxCell id="b58emFoe7f32XrIK5xdj-18" value="" style="endArrow=open;endFill=1;endSize=12;html=1;rounded=0;entryX=0;entryY=0.5;entryDx=0;entryDy=0;exitX=1;exitY=0.3333333333333333;exitDx=0;exitDy=0;exitPerimeter=0;" parent="1" source="b58emFoe7f32XrIK5xdj-1" target="b58emFoe7f32XrIK5xdj-17" edge="1">
          <mxGeometry width="160" relative="1" as="geometry">
            <mxPoint x="240" y="460" as="sourcePoint" />
            <mxPoint x="424" y="280" as="targetPoint" />
          </mxGeometry>
        </mxCell>
        <mxCell id="b58emFoe7f32XrIK5xdj-27" value="在线训练" style="ellipse;whiteSpace=wrap;html=1;" parent="1" vertex="1">
          <mxGeometry x="380" y="340" width="140" height="40" as="geometry" />
        </mxCell>
        <mxCell id="b58emFoe7f32XrIK5xdj-28" value="课程学习" style="ellipse;whiteSpace=wrap;html=1;" parent="1" vertex="1">
          <mxGeometry x="380" y="420" width="140" height="40" as="geometry" />
        </mxCell>
        <mxCell id="b58emFoe7f32XrIK5xdj-29" value="考试" style="ellipse;whiteSpace=wrap;html=1;" parent="1" vertex="1">
          <mxGeometry x="380" y="510" width="140" height="40" as="geometry" />
        </mxCell>
        <mxCell id="b58emFoe7f32XrIK5xdj-31" value="" style="endArrow=open;html=1;rounded=0;dashed=1;dashPattern=8 8;endFill=0;entryX=0.367;entryY=1.05;entryDx=0;entryDy=0;exitX=1;exitY=0.5;exitDx=0;exitDy=0;entryPerimeter=0;" parent="1" source="b58emFoe7f32XrIK5xdj-17" target="b58emFoe7f32XrIK5xdj-33" edge="1">
          <mxGeometry width="50" height="50" relative="1" as="geometry">
            <mxPoint x="633.757317073171" y="60" as="sourcePoint" />
            <mxPoint x="630" y="190" as="targetPoint" />
            <Array as="points" />
          </mxGeometry>
        </mxCell>
        <mxCell id="b58emFoe7f32XrIK5xdj-32" value="&lt;span style=&quot;background-color: rgb(251, 251, 251);&quot;&gt;&amp;lt;&amp;lt;include&amp;gt;&amp;gt;&lt;/span&gt;" style="edgeLabel;html=1;align=center;verticalAlign=middle;resizable=0;points=[];" parent="b58emFoe7f32XrIK5xdj-31" vertex="1" connectable="0">
          <mxGeometry x="-0.1045" y="2" relative="1" as="geometry">
            <mxPoint as="offset" />
          </mxGeometry>
        </mxCell>
        <mxCell id="b58emFoe7f32XrIK5xdj-33" value="跟读学习" style="ellipse;whiteSpace=wrap;html=1;" parent="1" vertex="1">
          <mxGeometry x="524.08" y="70" width="80" height="40" as="geometry" />
        </mxCell>
        <mxCell id="b58emFoe7f32XrIK5xdj-34" value="模拟外呼" style="ellipse;whiteSpace=wrap;html=1;" parent="1" vertex="1">
          <mxGeometry x="620" y="90" width="80" height="40" as="geometry" />
        </mxCell>
        <mxCell id="b58emFoe7f32XrIK5xdj-35" value="工作台操作" style="ellipse;whiteSpace=wrap;html=1;" parent="1" vertex="1">
          <mxGeometry x="710" y="360" width="80" height="40" as="geometry" />
        </mxCell>
        <mxCell id="b58emFoe7f32XrIK5xdj-36" value="训练得分" style="ellipse;whiteSpace=wrap;html=1;" parent="1" vertex="1">
          <mxGeometry x="700" y="290" width="80" height="40" as="geometry" />
        </mxCell>
        <mxCell id="b58emFoe7f32XrIK5xdj-38" value="会话打判" style="ellipse;whiteSpace=wrap;html=1;" parent="1" vertex="1">
          <mxGeometry x="670" y="140" width="80" height="40" as="geometry" />
        </mxCell>
        <mxCell id="b58emFoe7f32XrIK5xdj-39" value="实时辅导" style="ellipse;whiteSpace=wrap;html=1;" parent="1" vertex="1">
          <mxGeometry x="680" y="200" width="80" height="40" as="geometry" />
        </mxCell>
        <mxCell id="b58emFoe7f32XrIK5xdj-40" value="模拟进线" style="ellipse;whiteSpace=wrap;html=1;" parent="1" vertex="1">
          <mxGeometry x="690" y="420" width="80" height="40" as="geometry" />
        </mxCell>
        <mxCell id="ucp0iJu0_G3D9nAsqe9A-1" value="" style="endArrow=open;html=1;rounded=0;dashed=1;dashPattern=8 8;endFill=0;entryX=0;entryY=0.5;entryDx=0;entryDy=0;" edge="1" parent="1" target="b58emFoe7f32XrIK5xdj-34">
          <mxGeometry width="50" height="50" relative="1" as="geometry">
            <mxPoint x="520" y="220" as="sourcePoint" />
            <mxPoint x="600" y="130" as="targetPoint" />
            <Array as="points" />
          </mxGeometry>
        </mxCell>
        <mxCell id="ucp0iJu0_G3D9nAsqe9A-2" value="&lt;span style=&quot;background-color: rgb(251, 251, 251);&quot;&gt;&amp;lt;&amp;lt;include&amp;gt;&amp;gt;&lt;/span&gt;" style="edgeLabel;html=1;align=center;verticalAlign=middle;resizable=0;points=[];" vertex="1" connectable="0" parent="ucp0iJu0_G3D9nAsqe9A-1">
          <mxGeometry x="-0.1045" y="2" relative="1" as="geometry">
            <mxPoint as="offset" />
          </mxGeometry>
        </mxCell>
        <mxCell id="ucp0iJu0_G3D9nAsqe9A-3" value="" style="endArrow=open;html=1;rounded=0;dashed=1;dashPattern=8 8;endFill=0;entryX=0;entryY=0.5;entryDx=0;entryDy=0;" edge="1" parent="1" target="b58emFoe7f32XrIK5xdj-38">
          <mxGeometry width="50" height="50" relative="1" as="geometry">
            <mxPoint x="520" y="220" as="sourcePoint" />
            <mxPoint x="670" y="160" as="targetPoint" />
            <Array as="points" />
          </mxGeometry>
        </mxCell>
        <mxCell id="ucp0iJu0_G3D9nAsqe9A-4" value="&lt;span style=&quot;background-color: rgb(251, 251, 251);&quot;&gt;&amp;lt;&amp;lt;include&amp;gt;&amp;gt;&lt;/span&gt;" style="edgeLabel;html=1;align=center;verticalAlign=middle;resizable=0;points=[];" vertex="1" connectable="0" parent="ucp0iJu0_G3D9nAsqe9A-3">
          <mxGeometry x="-0.1045" y="2" relative="1" as="geometry">
            <mxPoint as="offset" />
          </mxGeometry>
        </mxCell>
        <mxCell id="ucp0iJu0_G3D9nAsqe9A-5" value="" style="endArrow=open;html=1;rounded=0;dashed=1;dashPattern=8 8;endFill=0;entryX=0;entryY=0.5;entryDx=0;entryDy=0;" edge="1" parent="1" target="b58emFoe7f32XrIK5xdj-39">
          <mxGeometry width="50" height="50" relative="1" as="geometry">
            <mxPoint x="530" y="220" as="sourcePoint" />
            <mxPoint x="700" y="210" as="targetPoint" />
            <Array as="points" />
          </mxGeometry>
        </mxCell>
        <mxCell id="ucp0iJu0_G3D9nAsqe9A-6" value="&lt;span style=&quot;background-color: rgb(251, 251, 251);&quot;&gt;&amp;lt;&amp;lt;include&amp;gt;&amp;gt;&lt;/span&gt;" style="edgeLabel;html=1;align=center;verticalAlign=middle;resizable=0;points=[];" vertex="1" connectable="0" parent="ucp0iJu0_G3D9nAsqe9A-5">
          <mxGeometry x="-0.1045" y="2" relative="1" as="geometry">
            <mxPoint as="offset" />
          </mxGeometry>
        </mxCell>
        <mxCell id="ucp0iJu0_G3D9nAsqe9A-7" value="" style="endArrow=open;html=1;rounded=0;dashed=1;dashPattern=8 8;endFill=0;entryX=0;entryY=0.5;entryDx=0;entryDy=0;exitX=1;exitY=0.5;exitDx=0;exitDy=0;" edge="1" parent="1" source="b58emFoe7f32XrIK5xdj-17" target="b58emFoe7f32XrIK5xdj-36">
          <mxGeometry width="50" height="50" relative="1" as="geometry">
            <mxPoint x="540" y="230" as="sourcePoint" />
            <mxPoint x="680" y="260" as="targetPoint" />
            <Array as="points" />
          </mxGeometry>
        </mxCell>
        <mxCell id="ucp0iJu0_G3D9nAsqe9A-8" value="&lt;span style=&quot;background-color: rgb(251, 251, 251);&quot;&gt;&amp;lt;&amp;lt;include&amp;gt;&amp;gt;&lt;/span&gt;" style="edgeLabel;html=1;align=center;verticalAlign=middle;resizable=0;points=[];" vertex="1" connectable="0" parent="ucp0iJu0_G3D9nAsqe9A-7">
          <mxGeometry x="-0.1045" y="2" relative="1" as="geometry">
            <mxPoint as="offset" />
          </mxGeometry>
        </mxCell>
        <mxCell id="ucp0iJu0_G3D9nAsqe9A-9" value="" style="endArrow=open;html=1;rounded=0;dashed=1;dashPattern=8 8;endFill=0;entryX=0;entryY=0.5;entryDx=0;entryDy=0;exitX=1;exitY=0.5;exitDx=0;exitDy=0;" edge="1" parent="1" source="b58emFoe7f32XrIK5xdj-17" target="b58emFoe7f32XrIK5xdj-35">
          <mxGeometry width="50" height="50" relative="1" as="geometry">
            <mxPoint x="530" y="230" as="sourcePoint" />
            <mxPoint x="700" y="310" as="targetPoint" />
            <Array as="points" />
          </mxGeometry>
        </mxCell>
        <mxCell id="ucp0iJu0_G3D9nAsqe9A-10" value="&lt;span style=&quot;background-color: rgb(251, 251, 251);&quot;&gt;&amp;lt;&amp;lt;include&amp;gt;&amp;gt;&lt;/span&gt;" style="edgeLabel;html=1;align=center;verticalAlign=middle;resizable=0;points=[];" vertex="1" connectable="0" parent="ucp0iJu0_G3D9nAsqe9A-9">
          <mxGeometry x="-0.1045" y="2" relative="1" as="geometry">
            <mxPoint as="offset" />
          </mxGeometry>
        </mxCell>
        <mxCell id="ucp0iJu0_G3D9nAsqe9A-11" value="" style="endArrow=open;html=1;rounded=0;exitX=1;exitY=0.5;exitDx=0;exitDy=0;dashed=1;dashPattern=8 8;endFill=0;entryX=0;entryY=0.5;entryDx=0;entryDy=0;" edge="1" parent="1" source="b58emFoe7f32XrIK5xdj-27" target="b58emFoe7f32XrIK5xdj-40">
          <mxGeometry width="50" height="50" relative="1" as="geometry">
            <mxPoint x="540" y="380" as="sourcePoint" />
            <mxPoint x="640" y="320" as="targetPoint" />
            <Array as="points" />
          </mxGeometry>
        </mxCell>
        <mxCell id="ucp0iJu0_G3D9nAsqe9A-12" value="&lt;span style=&quot;background-color: rgb(251, 251, 251);&quot;&gt;&amp;lt;&amp;lt;include&amp;gt;&amp;gt;&lt;/span&gt;" style="edgeLabel;html=1;align=center;verticalAlign=middle;resizable=0;points=[];" vertex="1" connectable="0" parent="ucp0iJu0_G3D9nAsqe9A-11">
          <mxGeometry x="-0.1045" y="2" relative="1" as="geometry">
            <mxPoint as="offset" />
          </mxGeometry>
        </mxCell>
        <mxCell id="ucp0iJu0_G3D9nAsqe9A-13" value="" style="endArrow=open;html=1;rounded=0;dashed=1;dashPattern=8 8;endFill=0;entryX=0;entryY=0.5;entryDx=0;entryDy=0;" edge="1" parent="1" target="b58emFoe7f32XrIK5xdj-35">
          <mxGeometry width="50" height="50" relative="1" as="geometry">
            <mxPoint x="520" y="360" as="sourcePoint" />
            <mxPoint x="690" y="420" as="targetPoint" />
            <Array as="points" />
          </mxGeometry>
        </mxCell>
        <mxCell id="ucp0iJu0_G3D9nAsqe9A-14" value="&lt;span style=&quot;background-color: rgb(251, 251, 251);&quot;&gt;&amp;lt;&amp;lt;include&amp;gt;&amp;gt;&lt;/span&gt;" style="edgeLabel;html=1;align=center;verticalAlign=middle;resizable=0;points=[];" vertex="1" connectable="0" parent="ucp0iJu0_G3D9nAsqe9A-13">
          <mxGeometry x="-0.1045" y="2" relative="1" as="geometry">
            <mxPoint as="offset" />
          </mxGeometry>
        </mxCell>
        <mxCell id="ucp0iJu0_G3D9nAsqe9A-15" value="" style="endArrow=open;html=1;rounded=0;exitX=1;exitY=0.5;exitDx=0;exitDy=0;dashed=1;dashPattern=8 8;endFill=0;entryX=0;entryY=0.5;entryDx=0;entryDy=0;" edge="1" parent="1" source="b58emFoe7f32XrIK5xdj-27" target="b58emFoe7f32XrIK5xdj-36">
          <mxGeometry width="50" height="50" relative="1" as="geometry">
            <mxPoint x="530" y="370" as="sourcePoint" />
            <mxPoint x="690" y="300" as="targetPoint" />
            <Array as="points" />
          </mxGeometry>
        </mxCell>
        <mxCell id="ucp0iJu0_G3D9nAsqe9A-16" value="&lt;span style=&quot;background-color: rgb(251, 251, 251);&quot;&gt;&amp;lt;&amp;lt;include&amp;gt;&amp;gt;&lt;/span&gt;" style="edgeLabel;html=1;align=center;verticalAlign=middle;resizable=0;points=[];" vertex="1" connectable="0" parent="ucp0iJu0_G3D9nAsqe9A-15">
          <mxGeometry x="-0.1045" y="2" relative="1" as="geometry">
            <mxPoint as="offset" />
          </mxGeometry>
        </mxCell>
        <mxCell id="ucp0iJu0_G3D9nAsqe9A-18" value="" style="endArrow=open;html=1;rounded=0;dashed=1;dashPattern=8 8;endFill=0;entryX=0.5;entryY=1;entryDx=0;entryDy=0;exitX=1;exitY=0.5;exitDx=0;exitDy=0;" edge="1" parent="1" source="b58emFoe7f32XrIK5xdj-27" target="b58emFoe7f32XrIK5xdj-39">
          <mxGeometry width="50" height="50" relative="1" as="geometry">
            <mxPoint x="530" y="370" as="sourcePoint" />
            <mxPoint x="710" y="390" as="targetPoint" />
            <Array as="points" />
          </mxGeometry>
        </mxCell>
        <mxCell id="ucp0iJu0_G3D9nAsqe9A-19" value="&lt;span style=&quot;background-color: rgb(251, 251, 251);&quot;&gt;&amp;lt;&amp;lt;include&amp;gt;&amp;gt;&lt;/span&gt;" style="edgeLabel;html=1;align=center;verticalAlign=middle;resizable=0;points=[];" vertex="1" connectable="0" parent="ucp0iJu0_G3D9nAsqe9A-18">
          <mxGeometry x="-0.1045" y="2" relative="1" as="geometry">
            <mxPoint as="offset" />
          </mxGeometry>
        </mxCell>
        <mxCell id="ucp0iJu0_G3D9nAsqe9A-20" value="" style="endArrow=open;endFill=1;endSize=12;html=1;rounded=0;entryX=0;entryY=0.5;entryDx=0;entryDy=0;exitX=1;exitY=0.3333333333333333;exitDx=0;exitDy=0;exitPerimeter=0;" edge="1" parent="1" source="b58emFoe7f32XrIK5xdj-1" target="b58emFoe7f32XrIK5xdj-27">
          <mxGeometry width="160" relative="1" as="geometry">
            <mxPoint x="250" y="340" as="sourcePoint" />
            <mxPoint x="390" y="230" as="targetPoint" />
          </mxGeometry>
        </mxCell>
        <mxCell id="ucp0iJu0_G3D9nAsqe9A-21" value="" style="endArrow=open;endFill=1;endSize=12;html=1;rounded=0;entryX=0;entryY=0.5;entryDx=0;entryDy=0;exitX=1;exitY=0.3333333333333333;exitDx=0;exitDy=0;exitPerimeter=0;" edge="1" parent="1" source="b58emFoe7f32XrIK5xdj-1" target="b58emFoe7f32XrIK5xdj-28">
          <mxGeometry width="160" relative="1" as="geometry">
            <mxPoint x="250" y="340" as="sourcePoint" />
            <mxPoint x="390" y="370" as="targetPoint" />
          </mxGeometry>
        </mxCell>
        <mxCell id="ucp0iJu0_G3D9nAsqe9A-22" value="" style="endArrow=open;endFill=1;endSize=12;html=1;rounded=0;entryX=0;entryY=0.5;entryDx=0;entryDy=0;exitX=1;exitY=0.3333333333333333;exitDx=0;exitDy=0;exitPerimeter=0;" edge="1" parent="1" source="b58emFoe7f32XrIK5xdj-1" target="b58emFoe7f32XrIK5xdj-29">
          <mxGeometry width="160" relative="1" as="geometry">
            <mxPoint x="250" y="340" as="sourcePoint" />
            <mxPoint x="390" y="450" as="targetPoint" />
          </mxGeometry>
        </mxCell>
        <mxCell id="ucp0iJu0_G3D9nAsqe9A-23" value="自由练习" style="ellipse;whiteSpace=wrap;html=1;" vertex="1" parent="1">
          <mxGeometry x="660" y="480" width="80" height="40" as="geometry" />
        </mxCell>
        <mxCell id="ucp0iJu0_G3D9nAsqe9A-24" value="" style="endArrow=open;html=1;rounded=0;exitX=1;exitY=0.5;exitDx=0;exitDy=0;dashed=1;dashPattern=8 8;endFill=0;entryX=0;entryY=0.5;entryDx=0;entryDy=0;" edge="1" parent="1" source="b58emFoe7f32XrIK5xdj-27" target="ucp0iJu0_G3D9nAsqe9A-23">
          <mxGeometry width="50" height="50" relative="1" as="geometry">
            <mxPoint x="530" y="370" as="sourcePoint" />
            <mxPoint x="680" y="450" as="targetPoint" />
            <Array as="points" />
          </mxGeometry>
        </mxCell>
        <mxCell id="ucp0iJu0_G3D9nAsqe9A-25" value="&lt;span style=&quot;background-color: rgb(251, 251, 251);&quot;&gt;&amp;lt;&amp;lt;include&amp;gt;&amp;gt;&lt;/span&gt;" style="edgeLabel;html=1;align=center;verticalAlign=middle;resizable=0;points=[];" vertex="1" connectable="0" parent="ucp0iJu0_G3D9nAsqe9A-24">
          <mxGeometry x="-0.1045" y="2" relative="1" as="geometry">
            <mxPoint as="offset" />
          </mxGeometry>
        </mxCell>
      </root>
    </mxGraphModel>
  </diagram>
</mxfile>
